<svg width="41" height="40" viewBox="0 0 41 40" fill="none" xmlns="http://www.w3.org/2000/svg">
<rect x="1.00195" y="0.5" width="39" height="39" rx="19.5" stroke="#353539"/>
<path d="M22.4314 26.6162V28.8618L20.4735 30.0124L18.5712 28.8618V26.6162L20.4735 27.7668L22.4314 26.6162ZM11.9551 18.8494L13.8573 20.0001V23.851L17.1329 25.8089V28.0545L11.9551 25.0016V18.8494ZM28.9919 18.8494V25.0109L23.7584 28.0638V25.8182L27.034 23.8602V20.0093L28.9919 18.8494ZM23.7491 15.7965L25.707 16.9472V19.1928L22.4314 21.1507V25.0573L20.5292 26.2079L18.6362 25.0573V21.1414L15.24 19.1835V16.9379L17.1979 15.7872L20.4735 17.7452L23.7491 15.7965ZM15.24 20.7981L17.1422 21.9487V24.1943L15.24 23.0437V20.7981ZM25.707 20.7981V23.0437L23.8048 24.1943V21.9487L25.707 20.7981ZM13.8573 13.8386L15.8153 14.9892L13.8573 16.1399V18.3855L11.9551 17.2348V14.9892L13.8573 13.8386ZM27.0896 13.8386L29.0476 14.9892V17.2348L27.0896 18.3855V16.1399L25.1874 14.9892L27.0896 13.8386ZM20.4735 13.8386L22.4314 14.9892L20.4735 16.1399L18.5712 14.9892L20.4735 13.8386ZM20.4735 9.98767L25.707 13.0406L23.8048 14.1912L20.5292 12.2333L17.1886 14.1912L15.2864 13.0406L20.4735 9.98767Z" fill="#F3BA2F"/>
</svg>
