<svg width="60" height="60" viewBox="0 0 60 60" fill="none" xmlns="http://www.w3.org/2000/svg">
<circle cx="30" cy="30" r="30" fill="#242332"/>
<path d="M38.3333 25V21.6667C38.3333 20.7827 37.9821 19.9348 37.357 19.3097C36.7319 18.6846 35.8841 18.3334 35 18.3334H18.3333C17.4493 18.3334 16.6014 18.6846 15.9763 19.3097C15.3512 19.9348 15 20.7827 15 21.6667V31.6667C15 32.5508 15.3512 33.3986 15.9763 34.0237C16.6014 34.6489 17.4493 35 18.3333 35H21.6667M25 41.6667H41.6667C42.5507 41.6667 43.3986 41.3155 44.0237 40.6904C44.6488 40.0653 45 39.2174 45 38.3334V28.3334C45 27.4493 44.6488 26.6015 44.0237 25.9764C43.3986 25.3512 42.5507 25 41.6667 25H25C24.1159 25 23.2681 25.3512 22.643 25.9764C22.0179 26.6015 21.6667 27.4493 21.6667 28.3334V38.3334C21.6667 39.2174 22.0179 40.0653 22.643 40.6904C23.2681 41.3155 24.1159 41.6667 25 41.6667ZM36.6667 33.3334C36.6667 34.2174 36.3155 35.0653 35.6904 35.6904C35.0652 36.3155 34.2174 36.6667 33.3333 36.6667C32.4493 36.6667 31.6014 36.3155 30.9763 35.6904C30.3512 35.0653 30 34.2174 30 33.3334C30 32.4493 30.3512 31.6015 30.9763 30.9764C31.6014 30.3512 32.4493 30 33.3333 30C34.2174 30 35.0652 30.3512 35.6904 30.9764C36.3155 31.6015 36.6667 32.4493 36.6667 33.3334Z" stroke="white" stroke-width="2" stroke-linecap="round" stroke-linejoin="round"/>
</svg>
