<svg width="60" height="60" viewBox="0 0 60 60" fill="none" xmlns="http://www.w3.org/2000/svg">
<circle cx="30" cy="30" r="30" fill="#242332"/>
<path d="M16.666 21.6667V38.3333C16.666 42.0167 22.636 45 29.9993 45C37.3627 45 43.3327 42.0167 43.3327 38.3333V21.6667M16.666 21.6667C16.666 25.35 22.636 28.3333 29.9993 28.3333C37.3627 28.3333 43.3327 25.35 43.3327 21.6667M16.666 21.6667C16.666 17.9833 22.636 15 29.9993 15C37.3627 15 43.3327 17.9833 43.3327 21.6667M43.3327 30C43.3327 33.6833 37.3627 36.6667 29.9993 36.6667C22.636 36.6667 16.666 33.6833 16.666 30" stroke="white" stroke-width="2" stroke-linecap="round" stroke-linejoin="round"/>
</svg>
