<svg width="60" height="60" viewBox="0 0 60 60" fill="none" xmlns="http://www.w3.org/2000/svg">
<circle cx="30" cy="30" r="30" fill="#242332"/>
<path d="M30 17.2567C30.8957 16.2412 32.0795 15.5225 33.3937 15.1963C34.7079 14.8701 36.0903 14.9519 37.3569 15.4307C38.6235 15.9095 39.7143 16.7626 40.4841 17.8766C41.254 18.9906 41.6663 20.3126 41.6663 21.6667C41.6663 23.0208 41.254 24.3428 40.4841 25.4567C39.7143 26.5707 38.6235 27.4239 37.3569 27.9027C36.0903 28.3815 34.7079 28.4632 33.3937 28.137C32.0795 27.8108 30.8957 27.0922 30 26.0767M35 45H15V43.3333C15 40.6812 16.0536 38.1376 17.9289 36.2623C19.8043 34.3869 22.3478 33.3333 25 33.3333C27.6522 33.3333 30.1957 34.3869 32.0711 36.2623C33.9464 38.1376 35 40.6812 35 43.3333V45ZM35 45H45V43.3333C45.0002 41.5778 44.5384 39.8532 43.6608 38.3328C42.7832 36.8124 41.5208 35.5499 40.0006 34.672C38.4804 33.7942 36.7558 33.332 35.0004 33.3319C33.2449 33.3319 31.5203 33.7939 30 34.6717M31.6667 21.6667C31.6667 23.4348 30.9643 25.1305 29.714 26.3807C28.4638 27.631 26.7681 28.3333 25 28.3333C23.2319 28.3333 21.5362 27.631 20.286 26.3807C19.0357 25.1305 18.3333 23.4348 18.3333 21.6667C18.3333 19.8986 19.0357 18.2029 20.286 16.9526C21.5362 15.7024 23.2319 15 25 15C26.7681 15 28.4638 15.7024 29.714 16.9526C30.9643 18.2029 31.6667 19.8986 31.6667 21.6667Z" stroke="white" stroke-width="2" stroke-linecap="round" stroke-linejoin="round"/>
</svg>
