<svg xmlns="http://www.w3.org/2000/svg" width="309" height="341" viewBox="0 0 309 341" fill="none"><g filter="url(#filter0_i_508_233)"><path d="m280.04 74.433.004.002c12.652 7.274 20.456 20.812 20.456 35.362v121.252c0 14.55-7.804 28.088-20.456 35.361l-.012.007-105.048 60.619a41.13 41.13 0 0 1-40.968 0L28.968 266.417l-.012-.007C16.304 259.137 8.5 245.599 8.5 231.049V109.797c0-14.52 7.778-27.92 20.456-35.207l.012-.007 105.048-60.62c.002 0 .003 0 .005-.002a41.128 41.128 0 0 1 40.963.003L280.04 74.433Z" stroke="url(#paint0_linear_508_233)" stroke-width="17" stroke-linecap="round" stroke-dasharray="9900"><animate attributeName="stroke" values="#006DFE; #43E8E1; #006DFE" dur="5s" repeatCount="indefinite" from="360 8.4 9.5" to="0 8.4 9.5"/></path></g></svg>