<svg width="279" height="58" viewBox="0 0 279 58" fill="none" xmlns="http://www.w3.org/2000/svg">
<g clip-path="url(#clip0_1135_3052)">
<path d="M94.3128 28.8027C95.3164 29.0712 96.026 29.4706 96.4439 30.0031C96.8617 30.5354 97.0719 31.3159 97.0719 32.3463V34.6301C97.0719 35.174 97.0531 35.594 97.0111 35.8877C96.9714 36.1815 96.8898 36.4638 96.7683 36.7323C96.5303 37.2258 96.1614 37.5793 95.6597 37.7905C95.1578 38.0038 94.4271 38.1095 93.4701 38.1095H81.7079C81.101 38.1095 80.6223 38.0795 80.27 38.0176C79.9175 37.9579 79.5883 37.8362 79.2803 37.655C78.8484 37.4139 78.5472 37.0697 78.377 36.6222C78.2065 36.177 78.1201 35.5136 78.1201 34.6301V33.1887L82.1187 32.3715V34.3316H91.3039C91.9365 34.3316 92.3917 34.2352 92.6624 34.0402C92.9355 33.845 93.0732 33.5191 93.0732 33.0602V32.048C93.0732 31.589 92.9355 31.2631 92.6624 31.0679C92.3893 30.8729 91.9365 30.7765 91.3039 30.7765H85.4427V27.1824H90.6037C91.2361 27.1824 91.6867 27.0813 91.9552 26.8771C92.2236 26.6728 92.359 26.3424 92.359 25.8834V25.4289C92.359 24.9698 92.2236 24.6439 91.9552 24.4489C91.6867 24.2537 91.2361 24.1573 90.6037 24.1573H82.3941V25.7801L78.3816 24.9493V23.859C78.3816 23.3127 78.4002 22.8951 78.4399 22.599C78.4796 22.3052 78.5613 22.0367 78.685 21.7956C78.9232 21.2771 79.2919 20.9121 79.7938 20.6986C80.2957 20.4875 81.0262 20.3818 81.9856 20.3818H92.7675C93.3837 20.3818 93.8669 20.4163 94.2194 20.4851C94.5719 20.5541 94.8963 20.6711 95.1975 20.8363C95.6292 21.0774 95.9304 21.4216 96.1008 21.8668C96.2712 22.3121 96.3575 22.9777 96.3575 23.859V25.7548C96.3575 26.6016 96.2105 27.2512 95.9163 27.7011C95.6222 28.1487 95.0878 28.5158 94.3128 28.8027Z" fill="url(#paint0_linear_1135_3052)"/>
<path d="M106.223 32.0463V34.1739H117.985V31.0595H106.447C105.709 31.0595 105.086 30.9952 104.58 30.8643C104.073 30.7334 103.669 30.5132 103.366 30.2033C103.062 29.8912 102.838 29.4872 102.694 28.9892C102.549 28.4912 102.477 27.8806 102.477 27.1531V24.2842C102.477 22.8475 102.773 21.8376 103.366 21.2547C103.959 20.6717 104.988 20.3779 106.447 20.3779H117.957C118.695 20.3779 119.318 20.4491 119.825 20.5914C120.331 20.7336 120.742 20.954 121.059 21.2523C121.375 21.5508 121.601 21.9524 121.732 22.4597C121.862 22.9668 121.93 23.5728 121.93 24.282V25.5006L117.745 26.3568V24.3324H106.659V27.2771H118.207C118.947 27.2771 119.568 27.3483 120.07 27.4905C120.572 27.6328 120.98 27.8554 121.298 28.1584C121.615 28.4614 121.841 28.8652 121.977 29.3725C122.114 29.8774 122.182 30.4856 122.182 31.1971V34.1946C122.182 34.9221 122.114 35.5349 121.977 36.0307C121.839 36.5287 121.615 36.9303 121.298 37.2379C120.98 37.5455 120.572 37.7657 120.07 37.8989C119.568 38.032 118.947 38.1008 118.207 38.1008H105.985C105.247 38.1008 104.629 38.0342 104.132 37.8989C103.634 37.7635 103.228 37.5431 102.918 37.2379C102.605 36.9303 102.381 36.5287 102.243 36.0307C102.105 35.5325 102.04 34.9221 102.04 34.1946V32.8978L106.223 32.0463Z" fill="url(#paint1_linear_1135_3052)"/>
<path d="M134.258 20.3818H138.693L143.154 32.0227L147.824 20.3818H150.966L155.744 32.0227L160.022 20.3818H163.861L156.984 38.1095H154.069L149.118 25.8581L144.087 38.1095H141.198L134.258 20.3818Z" fill="url(#paint2_linear_1135_3052)"/>
<path d="M174.693 20.3818H178.745L189.081 38.1095H184.37L182.272 34.2283H170.826L168.689 38.1095H164.502L174.693 20.3818ZM180.209 30.4528L176.579 23.8338L172.909 30.4528H180.209Z" fill="url(#paint3_linear_1135_3052)"/>
<path d="M192.223 20.3818H196.408V34.1778H209.926V38.1095H192.224L192.223 20.3818Z" fill="url(#paint4_linear_1135_3052)"/>
<path d="M214.165 20.3818H218.35V34.1778H231.868V38.1095H214.167V20.3818H214.165Z" fill="url(#paint5_linear_1135_3052)"/>
<path d="M236.107 20.3818H254.549V24.341H240.292V27.001H248.621V30.7513H240.292V34.1778H254.732V38.1095H236.107V20.3818Z" fill="url(#paint6_linear_1135_3052)"/>
<path d="M270.727 38.1095H266.515V24.341H258.239V20.3818H279.002V24.341H270.727V38.1095Z" fill="url(#paint7_linear_1135_3052)"/>
<path fill-rule="evenodd" clip-rule="evenodd" d="M32.4246 45.0994C34.3889 44.4743 35.1295 42.0946 33.86 40.4654C32.4108 38.6056 29.0741 37.5801 25.5408 37.3859C25.4558 34.4231 24.1603 33.2453 22.9346 33.1021C21.4226 32.9256 19.9643 34.2454 20.3945 34.7547C21.2959 35.8235 23.0006 36.1983 23.3778 37.3712C19.7298 37.5193 16.2374 38.5508 14.7442 40.4654C13.4747 42.0946 14.2142 44.4743 16.1795 45.1005C17.6408 45.2938 18.8993 45.7296 19.7378 46.285C21.0314 47.1417 21.4295 48.5363 19.4522 48.5854C18.7028 48.6041 17.6647 48.4235 16.3652 48.0623C16.969 52.8956 18.9343 53.9593 20.9005 55.0212C22.1013 55.6699 23.3029 56.3185 24.3032 57.6218C25.3033 56.3176 26.5039 55.6699 27.7057 55.0212C29.6719 53.9603 31.6372 52.8965 32.24 48.0642C30.9435 48.4244 29.9085 48.603 29.1598 48.5854C27.1817 48.5363 27.5809 47.1417 28.8745 46.285C29.7118 45.7305 30.9674 45.2948 32.4257 45.1015L32.4246 45.0994Z" fill="url(#paint8_linear_1135_3052)"/>
<path fill-rule="evenodd" clip-rule="evenodd" d="M30.4416 19.6689C29.4625 19.2693 28.4385 19.4931 28.153 20.1683C27.8686 20.8434 28.4304 21.715 29.4096 22.1133C30.3888 22.5129 31.4128 22.289 31.6972 21.6139C31.9837 20.9397 31.4208 20.0683 30.4416 19.6689Z" fill="url(#paint9_linear_1135_3052)"/>
<path d="M51.2118 6.58407C55.2192 30.2117 43.209 31.8732 38.2275 32.4827C48.7395 29.0114 55.6444 12.281 44.2481 0C42.7709 7.86869 35.9658 9.40945 27.7355 9.16215C32.229 7.52423 32.3996 3.97949 32.3996 3.97949C31.5372 7.46142 17.8322 9.08363 17.8322 9.08363L17.6436 9.10326C9.11177 10.0091 1.68487 14.0543 0.207679 23.9711C-1.06091 32.4856 3.54534 42.5427 12.2987 49.5262C8.29732 34.5023 8.50293 21.9956 20.8874 16.7786C20.4741 16.1074 20.1967 15.4557 20.1129 14.8345C19.7924 12.4635 22.0343 11.5479 24.0005 12.6264C24.9297 13.1357 25.7911 14.0582 26.6056 15.2702C29.3604 15.387 31.9455 16.0828 34.1073 17.0995C40.2447 19.9868 42.2749 24.1546 36.3751 28.6827C34.299 30.2765 31.6061 31.2089 28.5189 31.72C28.5189 31.72 46.1155 46.8559 55.5896 33.0852C61.4345 22.3117 51.2118 6.58407 51.2118 6.58407ZM36.0766 32.9949C36.1155 32.989 36.1544 32.9832 36.1924 32.9763C36.1755 33.0097 36.1664 33.045 36.1684 33.0852C36.1394 33.0548 36.1085 33.0244 36.0766 32.9949Z" fill="url(#paint10_linear_1135_3052)"/>
</g>
<defs>
<linearGradient id="paint0_linear_1135_3052" x1="87.5958" y1="18.1821" x2="87.5958" y2="39.6795" gradientUnits="userSpaceOnUse">
<stop stop-color="#D31981"/>
<stop offset="1" stop-color="#4C2777"/>
</linearGradient>
<linearGradient id="paint1_linear_1135_3052" x1="112.111" y1="18.1827" x2="112.111" y2="39.6802" gradientUnits="userSpaceOnUse">
<stop stop-color="#D31981"/>
<stop offset="1" stop-color="#4C2777"/>
</linearGradient>
<linearGradient id="paint2_linear_1135_3052" x1="149.061" y1="18.1843" x2="149.061" y2="39.6817" gradientUnits="userSpaceOnUse">
<stop stop-color="#D31981"/>
<stop offset="1" stop-color="#4C2777"/>
</linearGradient>
<linearGradient id="paint3_linear_1135_3052" x1="176.791" y1="18.1843" x2="176.791" y2="39.6817" gradientUnits="userSpaceOnUse">
<stop stop-color="#D31981"/>
<stop offset="1" stop-color="#4C2777"/>
</linearGradient>
<linearGradient id="paint4_linear_1135_3052" x1="201.073" y1="18.1843" x2="201.073" y2="39.6817" gradientUnits="userSpaceOnUse">
<stop stop-color="#D31981"/>
<stop offset="1" stop-color="#4C2777"/>
</linearGradient>
<linearGradient id="paint5_linear_1135_3052" x1="223.017" y1="18.1843" x2="223.017" y2="39.6817" gradientUnits="userSpaceOnUse">
<stop stop-color="#D31981"/>
<stop offset="1" stop-color="#4C2777"/>
</linearGradient>
<linearGradient id="paint6_linear_1135_3052" x1="245.421" y1="18.1843" x2="245.421" y2="39.6817" gradientUnits="userSpaceOnUse">
<stop stop-color="#D31981"/>
<stop offset="1" stop-color="#4C2777"/>
</linearGradient>
<linearGradient id="paint7_linear_1135_3052" x1="268.62" y1="18.1843" x2="268.62" y2="39.6817" gradientUnits="userSpaceOnUse">
<stop stop-color="#D31981"/>
<stop offset="1" stop-color="#4C2777"/>
</linearGradient>
<linearGradient id="paint8_linear_1135_3052" x1="12.4727" y1="54.4117" x2="56.0295" y2="16.8729" gradientUnits="userSpaceOnUse">
<stop stop-color="#D31981"/>
<stop offset="1" stop-color="#4C2777"/>
</linearGradient>
<linearGradient id="paint9_linear_1135_3052" x1="2.95278" y1="43.3651" x2="46.5098" y2="5.82641" gradientUnits="userSpaceOnUse">
<stop stop-color="#D31981"/>
<stop offset="1" stop-color="#4C2777"/>
</linearGradient>
<linearGradient id="paint10_linear_1135_3052" x1="4.68069" y1="45.3706" x2="48.2376" y2="7.83174" gradientUnits="userSpaceOnUse">
<stop stop-color="#D31981"/>
<stop offset="1" stop-color="#4C2777"/>
</linearGradient>
<clipPath id="clip0_1135_3052">
<rect width="279" height="58" fill="white"/>
</clipPath>
</defs>
</svg>
