<svg width="235" height="44" viewBox="0 0 235 44" fill="none" xmlns="http://www.w3.org/2000/svg">
<g clip-path="url(#clip0_1050_3083)">
<path d="M206.834 22.2109C205.554 21.3675 204.131 20.8051 202.851 20.1023C201.997 19.6805 201.144 19.2588 200.29 18.5559C199.01 17.5719 199.295 15.4633 200.575 14.6198C202.424 13.3547 205.554 14.0575 205.98 16.5879C205.98 16.5879 205.98 16.7285 206.123 16.7285H208.968C209.11 16.7285 209.11 16.7285 209.11 16.5879C208.968 14.901 208.256 13.3547 206.976 12.5112C205.838 11.6678 204.416 11.1055 202.993 11.1055C195.454 11.1055 194.743 18.9777 198.868 21.3674C199.295 21.6486 203.278 23.6167 204.7 24.4601C206.123 25.3036 206.549 26.8499 205.98 28.1151C205.411 29.2397 203.989 30.0831 202.566 29.9425C201.002 29.802 199.721 28.9585 199.295 27.6933C199.152 27.4122 199.152 26.9905 199.152 26.8499C199.152 26.8499 199.152 26.7093 199.01 26.7093H195.881C195.881 26.7093 195.738 26.7093 195.738 26.8499C195.738 29.0991 196.307 30.2237 197.872 31.3483C199.295 32.4729 200.859 32.8946 202.424 32.8946C206.692 32.8946 208.825 30.5048 209.252 28.1151C209.679 25.7253 208.968 23.6167 206.834 22.2109Z" fill="white"/>
<path d="M72.8329 11.5273H71.4104H69.8456C69.8456 11.5273 69.7034 11.5273 69.7034 11.6679L67.1429 19.9618C67.1429 20.1024 67.0006 20.1024 66.8584 19.9618L64.2978 11.6679C64.2978 11.6679 64.2978 11.5273 64.1556 11.5273H62.5908H61.1683H59.7458C59.7458 11.5273 59.6035 11.5273 59.6035 11.6679V32.7541C59.6035 32.7541 59.6035 32.8947 59.7458 32.8947H62.8753C62.8753 32.8947 63.0176 32.8947 63.0176 32.7541V16.588C63.0176 16.4474 63.1598 16.4474 63.3021 16.588L65.8626 24.8819L66.0048 25.4442C66.0048 25.4442 66.0048 25.5848 66.1471 25.5848H68.5654C68.5654 25.5848 68.7076 25.5848 68.7076 25.4442L68.8499 24.8819L71.4104 16.588C71.4104 16.4474 71.6949 16.4474 71.6949 16.588V32.6136C71.6949 32.6136 71.6949 32.7541 71.8372 32.7541H74.9667C74.9667 32.7541 75.109 32.7541 75.109 32.6136V11.5273C75.109 11.5273 75.109 11.3867 74.9667 11.3867H72.8329V11.5273Z" fill="white"/>
<path d="M159.606 11.5273C159.464 11.5273 159.464 11.5273 159.606 11.5273L156.903 19.8212C156.903 19.9618 156.761 19.9618 156.619 19.8212L154.058 11.5273C154.058 11.5273 154.058 11.3867 153.916 11.3867H149.364C149.364 11.3867 149.222 11.3867 149.222 11.5273V32.6136C149.222 32.6136 149.222 32.7541 149.364 32.7541H152.493C152.493 32.7541 152.636 32.7541 152.636 32.6136V16.588C152.636 16.4474 152.778 16.4474 152.92 16.588L155.481 24.8819L155.623 25.4442C155.623 25.4442 155.623 25.5848 155.765 25.5848H158.184C158.184 25.5848 158.326 25.5848 158.326 25.4442L158.468 24.8819L161.029 16.588C161.029 16.4474 161.313 16.4474 161.313 16.588V32.6136C161.313 32.6136 161.313 32.7541 161.455 32.7541H164.585C164.585 32.7541 164.727 32.7541 164.727 32.6136V11.5273C164.727 11.5273 164.727 11.3867 164.585 11.3867H159.606V11.5273Z" fill="white"/>
<path d="M119.776 11.5273H114.086H110.956H105.266C105.266 11.5273 105.124 11.5273 105.124 11.6679V14.3388C105.124 14.3388 105.124 14.4794 105.266 14.4794H110.956V32.7542C110.956 32.7542 110.956 32.8948 111.099 32.8948H114.228C114.228 32.8948 114.37 32.8948 114.37 32.7542V14.4794H120.06C120.06 14.4794 120.203 14.4794 120.203 14.3388L119.776 11.5273Z" fill="white"/>
<path d="M137.985 32.7541H140.83C140.972 32.7541 140.972 32.6136 140.972 32.6136L135.14 11.5273C135.14 11.5273 135.14 11.3867 134.997 11.3867H133.859H132.01H130.872C130.872 11.3867 130.73 11.3867 130.73 11.5273L124.897 32.6136C124.897 32.7541 124.897 32.7541 125.04 32.7541H127.885C127.885 32.7541 128.027 32.7541 128.027 32.6136L129.734 26.4283C129.734 26.4283 129.734 26.2877 129.876 26.2877H136.135C136.135 26.2877 136.278 26.2877 136.278 26.4283L137.985 32.7541C137.842 32.7541 137.842 32.7541 137.985 32.7541ZM130.588 23.4762L132.864 15.3228C132.864 15.1822 133.006 15.1822 133.148 15.3228L135.424 23.4762C135.424 23.6168 135.424 23.6167 135.282 23.6167H130.73C130.588 23.6167 130.588 23.4762 130.588 23.4762Z" fill="white"/>
<path d="M185.781 32.7541H188.626C188.768 32.7541 188.768 32.6136 188.768 32.6136L182.935 11.5273C182.935 11.5273 182.935 11.3867 182.793 11.3867H181.655H179.806H178.668C178.668 11.3867 178.526 11.3867 178.526 11.5273L172.693 32.6136C172.693 32.7541 172.693 32.7541 172.836 32.7541H175.681C175.681 32.7541 175.823 32.7541 175.823 32.6136L177.53 26.4283C177.53 26.4283 177.53 26.2877 177.672 26.2877H183.931C183.931 26.2877 184.073 26.2877 184.073 26.4283L185.781 32.7541ZM178.526 23.4762L180.802 15.3228C180.802 15.1822 180.944 15.1822 181.086 15.3228L183.362 23.4762C183.362 23.6168 183.362 23.6167 183.22 23.6167H178.668C178.526 23.6167 178.526 23.4762 178.526 23.4762Z" fill="white"/>
<path d="M87.2005 29.6615V23.1951C87.2005 23.1951 87.2005 23.0545 87.3428 23.0545H95.5934C95.5934 23.0545 95.7356 23.0545 95.7356 22.9139V20.243C95.7356 20.243 95.7356 20.1024 95.5934 20.1024H87.3428C87.3428 20.1024 87.2005 20.1024 87.2005 19.9618V14.3388C87.2005 14.3388 87.2005 14.1983 87.3428 14.1983H96.7314C96.7314 14.1983 96.8736 14.1983 96.8736 14.0577V11.6679C96.8736 11.6679 96.8736 11.5273 96.7314 11.5273H87.2005H84.071C84.071 11.5273 83.9287 11.5273 83.9287 11.6679V14.3388V20.1024V22.9139V29.6615V32.473C83.9287 32.473 83.9287 32.6136 84.071 32.6136H87.2005H97.0159C97.0159 32.6136 97.1581 32.6136 97.1581 32.473V29.6615C97.1581 29.6615 97.1581 29.521 97.0159 29.521L87.2005 29.6615Z" fill="white"/>
<path d="M235 32.6136L224.331 21.7893V21.6487L234.004 11.8085C234.147 11.6679 234.004 11.6679 233.862 11.6679H229.879C229.879 11.6679 229.879 11.6679 229.737 11.6679L221.629 19.9618C221.486 20.1024 221.486 19.9618 221.486 19.8213V11.6679C221.486 11.6679 221.486 11.5273 221.344 11.5273H218.215C218.215 11.5273 218.072 11.5273 218.072 11.6679V32.7542C218.072 32.7542 218.072 32.8948 218.215 32.8948H221.344C221.344 32.8948 221.486 32.8948 221.486 32.7542V23.4762C221.486 23.3357 221.629 23.3357 221.629 23.3357L230.875 32.7542C230.875 32.7542 230.875 32.7542 231.017 32.7542H235C235 32.7542 235.142 32.6136 235 32.6136Z" fill="white"/>
<path d="M45.663 0.140625L26.8857 13.7764L30.2998 5.76363L45.663 0.140625Z" fill="#E17726" stroke="#E17726" stroke-width="0.25" stroke-linecap="round" stroke-linejoin="round"/>
<path d="M2.56055 0.140625L21.0533 13.917L17.7815 5.76363L2.56055 0.140625Z" fill="#E27625" stroke="#E27625" stroke-width="0.25" stroke-linecap="round" stroke-linejoin="round"/>
<path d="M38.9769 31.9102L33.998 39.3606L44.6669 42.3127L47.6542 32.0507L38.9769 31.9102Z" fill="#E27625" stroke="#E27625" stroke-width="0.25" stroke-linecap="round" stroke-linejoin="round"/>
<path d="M0.569336 32.0507L3.55662 42.3127L14.2255 39.3606L9.2467 31.9102L0.569336 32.0507Z" fill="#E27625" stroke="#E27625" stroke-width="0.25" stroke-linecap="round" stroke-linejoin="round"/>
<path d="M13.6562 19.1178L10.6689 23.4756L21.1956 23.8974L20.9111 12.6514L13.6562 19.1178Z" fill="#E27625" stroke="#E27625" stroke-width="0.25" stroke-linecap="round" stroke-linejoin="round"/>
<path d="M34.5673 19.1178L27.1702 12.6514L26.8857 24.0379L37.4124 23.6162L34.5673 19.1178Z" fill="#E27625" stroke="#E27625" stroke-width="0.25" stroke-linecap="round" stroke-linejoin="round"/>
<path d="M14.2256 39.3607L20.6269 36.268L15.0791 32.0508L14.2256 39.3607Z" fill="#E27625" stroke="#E27625" stroke-width="0.25" stroke-linecap="round" stroke-linejoin="round"/>
<path d="M27.5967 36.268L33.998 39.3607L33.1445 32.0508L27.5967 36.268Z" fill="#E27625" stroke="#E27625" stroke-width="0.25" stroke-linecap="round" stroke-linejoin="round"/>
<path d="M33.998 39.3612L27.5967 36.2686L28.1657 40.3452V42.0321L33.998 39.3612Z" fill="#D5BFB2" stroke="#D5BFB2" stroke-width="0.25" stroke-linecap="round" stroke-linejoin="round"/>
<path d="M14.2256 39.3613L20.2002 42.1728V40.4859L20.7692 36.4092L14.2256 39.3613Z" fill="#D5BFB2" stroke="#D5BFB2" stroke-width="0.25" stroke-linecap="round" stroke-linejoin="round"/>
<path d="M20.1998 29.3797L14.9365 27.8334L18.6351 26.1465L20.1998 29.3797Z" fill="#233447" stroke="#233447" stroke-width="0.25" stroke-linecap="round" stroke-linejoin="round"/>
<path d="M27.8818 29.3797L29.4466 26.1465L33.1452 27.8334L27.8818 29.3797Z" fill="#233447" stroke="#233447" stroke-width="0.25" stroke-linecap="round" stroke-linejoin="round"/>
<path d="M14.2249 39.3606L15.0784 31.9102L9.24609 32.0507L14.2249 39.3606Z" fill="#CC6228" stroke="#CC6228" stroke-width="0.25" stroke-linecap="round" stroke-linejoin="round"/>
<path d="M33.002 31.9102L33.8555 39.3606L38.8343 32.0507L33.002 31.9102Z" fill="#CC6228" stroke="#CC6228" stroke-width="0.25" stroke-linecap="round" stroke-linejoin="round"/>
<path d="M37.555 23.6162L27.0283 24.0379L28.0241 29.3798L29.5889 26.1466L33.2874 27.8335L37.555 23.6162Z" fill="#CC6228" stroke="#CC6228" stroke-width="0.25" stroke-linecap="round" stroke-linejoin="round"/>
<path d="M14.9365 27.8335L18.635 26.1466L20.1998 29.3798L21.1956 24.0379L10.6689 23.6162L14.9365 27.8335Z" fill="#CC6228" stroke="#CC6228" stroke-width="0.25" stroke-linecap="round" stroke-linejoin="round"/>
<path d="M10.6689 23.6162L15.0788 32.1913L14.9365 27.974L10.6689 23.6162Z" fill="#E27525" stroke="#E27525" stroke-width="0.25" stroke-linecap="round" stroke-linejoin="round"/>
<path d="M33.2868 27.8334L33.1445 32.0507L37.5543 23.4756L33.2868 27.8334Z" fill="#E27525" stroke="#E27525" stroke-width="0.25" stroke-linecap="round" stroke-linejoin="round"/>
<path d="M21.196 24.0381L20.2002 29.3799L21.4805 35.7058L21.765 27.4119L21.196 24.0381Z" fill="#E27525" stroke="#E27525" stroke-width="0.25" stroke-linecap="round" stroke-linejoin="round"/>
<path d="M26.8854 24.0381L26.3164 27.4119L26.6009 35.7058L27.8812 29.3799L26.8854 24.0381Z" fill="#E27525" stroke="#E27525" stroke-width="0.25" stroke-linecap="round" stroke-linejoin="round"/>
<path d="M27.8818 29.3803L26.6016 35.7062L27.4551 36.2685L33.0029 32.0512L33.1451 27.834L27.8818 29.3803Z" fill="#F5841F" stroke="#F5841F" stroke-width="0.25" stroke-linecap="round" stroke-linejoin="round"/>
<path d="M14.9365 27.834L15.0788 32.0512L20.6266 36.2685L21.4801 35.7062L20.1998 29.3803L14.9365 27.834Z" fill="#F5841F" stroke="#F5841F" stroke-width="0.25" stroke-linecap="round" stroke-linejoin="round"/>
<path d="M28.024 42.1728V40.4859L27.5973 40.0642H20.4847L20.0579 40.4859V42.1728L14.2256 39.3613L16.3594 41.0482L20.4847 43.8597H27.7395L32.0071 41.0482L33.9986 39.3613L28.024 42.1728Z" fill="#C0AC9D" stroke="#C0AC9D" stroke-width="0.25" stroke-linecap="round" stroke-linejoin="round"/>
<path d="M27.597 36.2684L26.7435 35.7061H21.4801L20.6266 36.2684L20.0576 40.345L20.4844 39.9233H27.597L28.0237 40.345L27.597 36.2684Z" fill="#161616" stroke="#161616" stroke-width="0.25" stroke-linecap="round" stroke-linejoin="round"/>
<path d="M46.3739 14.7604L47.9387 7.16938L45.5204 0.140625L27.5967 13.3547L34.567 19.1183L44.3824 21.9298L46.5162 19.3994L45.5204 18.8371L47.0852 17.4314L45.9472 16.5879L47.5119 15.4633L46.3739 14.7604Z" fill="#763E1A" stroke="#763E1A" stroke-width="0.25" stroke-linecap="round" stroke-linejoin="round"/>
<path d="M0.142578 7.16938L1.70735 14.7604L0.711585 15.4633L2.27636 16.5879L1.13834 17.4314L2.70311 18.8371L1.70735 19.54L3.84113 22.0703L13.6565 19.2588L20.6268 13.4953L2.56086 0.140625L0.142578 7.16938Z" fill="#763E1A" stroke="#763E1A" stroke-width="0.25" stroke-linecap="round" stroke-linejoin="round"/>
<path d="M44.3824 21.9297L34.567 19.1182L37.5543 23.476L33.1445 32.0511L38.9769 31.9105H47.6542L44.3824 21.9297Z" fill="#F5841F" stroke="#F5841F" stroke-width="0.25" stroke-linecap="round" stroke-linejoin="round"/>
<path d="M13.6565 19.1182L3.84113 21.9297L0.569336 31.9105H9.2467L15.079 32.0511L10.6692 23.476L13.6565 19.1182Z" fill="#F5841F" stroke="#F5841F" stroke-width="0.25" stroke-linecap="round" stroke-linejoin="round"/>
<path d="M26.886 24.0384L27.455 13.3547L30.3001 5.76367H17.6396L20.4847 13.3547L21.0537 24.0384L21.3382 27.4122V35.7062H26.6015V27.4122L26.886 24.0384Z" fill="#F5841F" stroke="#F5841F" stroke-width="0.25" stroke-linecap="round" stroke-linejoin="round"/>
</g>
<defs>
<clipPath id="clip0_1050_3083">
<rect width="235" height="44" fill="white"/>
</clipPath>
</defs>
</svg>
