<svg width="204" height="49" viewBox="0 0 204 49" fill="none" xmlns="http://www.w3.org/2000/svg">
<rect x="0.5" y="0.5" width="203" height="48" rx="24" fill="black"/>
<rect x="0.5" y="0.5" width="203" height="48" rx="24" stroke="white"/>
<circle cx="24.5" cy="24.5" r="19.5" fill="white"/>
<path d="M28.6647 12C28.7177 12 28.7707 12 28.8267 12C28.9567 13.606 28.3437 14.806 27.5987 15.675C26.8677 16.538 25.8667 17.375 24.2477 17.248C24.1397 15.665 24.7537 14.554 25.4977 13.687C26.1877 12.879 27.4527 12.16 28.6647 12Z" fill="black"/>
<path d="M33.566 28.7162C33.566 28.7322 33.566 28.7462 33.566 28.7612C33.111 30.1392 32.462 31.3202 31.67 32.4162C30.947 33.4112 30.061 34.7502 28.479 34.7502C27.112 34.7502 26.204 33.8712 24.803 33.8472C23.321 33.8232 22.506 34.5822 21.151 34.7732C20.996 34.7732 20.841 34.7732 20.689 34.7732C19.694 34.6292 18.891 33.8412 18.306 33.1312C16.581 31.0332 15.248 28.3232 15 24.8552C15 24.5152 15 24.1762 15 23.8362C15.105 21.3542 16.311 19.3362 17.914 18.3582C18.76 17.8382 19.923 17.3952 21.218 17.5932C21.773 17.6792 22.34 17.8692 22.837 18.0572C23.308 18.2382 23.897 18.5592 24.455 18.5422C24.833 18.5312 25.209 18.3342 25.59 18.1952C26.706 17.7922 27.8 17.3302 29.242 17.5472C30.975 17.8092 32.205 18.5792 32.965 19.7672C31.499 20.7002 30.34 22.1062 30.538 24.5072C30.714 26.6882 31.982 27.9642 33.566 28.7162Z" fill="black"/>
<path d="M63.095 20.013L60.937 20H60.17V10.705H63.16C65.617 10.705 67.489 12.551 67.489 15.255C67.489 17.959 65.552 20.026 63.095 20.013ZM61.145 19.09H63.082C65.045 19.09 66.514 17.257 66.514 15.255C66.514 13.253 65.11 11.641 63.147 11.641H61.145V19.09ZM68.1543 15.45C68.1543 12.746 69.9353 10.705 72.4443 10.705C74.9533 10.705 76.7343 12.746 76.7343 15.45C76.7343 18.154 74.9533 20.208 72.4443 20.208C69.9353 20.208 68.1543 18.154 68.1543 15.45ZM69.1293 15.45C69.1293 17.452 70.4423 19.285 72.4443 19.285C74.4463 19.285 75.7593 17.452 75.7593 15.45C75.7593 13.448 74.4463 11.641 72.4443 11.641C70.4423 11.641 69.1293 13.448 69.1293 15.45ZM82.9743 13.214L80.9723 20H79.7763L77.5143 10.9H78.4893L80.2183 18.024C80.2963 18.323 80.2443 18.7 80.2313 18.999L80.4263 19.012C80.4393 18.713 80.4003 18.323 80.4913 18.037L82.6883 10.9H83.6633L85.8863 18.037C85.9773 18.323 85.9383 18.713 85.9513 19.012L86.1463 18.999C86.1333 18.7 86.0813 18.323 86.1463 18.024L87.8883 10.9H88.8633L86.6013 20H85.4053L83.3773 13.214C83.2603 12.811 83.2733 12.252 83.2733 11.836H83.0783C83.0783 12.252 83.0913 12.811 82.9743 13.214ZM91.2075 13.539V20H90.2325V10.9H91.2075L95.9655 17.543C96.2905 18.011 96.5375 18.713 96.7065 19.246L96.8885 19.194C96.7195 18.648 96.5115 17.946 96.5115 17.374V10.9H97.4865V20H96.5115L91.7535 13.357C91.4285 12.902 91.1815 12.2 91.0125 11.654L90.8305 11.719C90.9995 12.265 91.2075 12.967 91.2075 13.539ZM100.805 19.116H105.511V20H99.8302V10.9H100.805V19.116ZM106.05 15.45C106.05 12.746 107.831 10.705 110.34 10.705C112.849 10.705 114.63 12.746 114.63 15.45C114.63 18.154 112.849 20.208 110.34 20.208C107.831 20.208 106.05 18.154 106.05 15.45ZM107.025 15.45C107.025 17.452 108.338 19.285 110.34 19.285C112.342 19.285 113.655 17.452 113.655 15.45C113.655 13.448 112.342 11.641 110.34 11.641C108.338 11.641 107.025 13.448 107.025 15.45ZM115.15 19.987L118.595 10.874H119.947L123.496 19.987H122.391L121.078 16.711H117.49L116.281 19.987H115.15ZM120.831 15.827L119.414 12.343C119.323 12.135 119.362 11.823 119.362 11.589H119.167C119.167 11.823 119.206 12.135 119.115 12.343L117.711 15.827H120.831ZM127.333 20.013L125.175 20H124.408V10.705H127.398C129.855 10.705 131.727 12.551 131.727 15.255C131.727 17.959 129.79 20.026 127.333 20.013ZM125.383 19.09H127.32C129.283 19.09 130.752 17.257 130.752 15.255C130.752 13.253 129.348 11.641 127.385 11.641H125.383V19.09ZM136.277 15.45C136.277 12.746 138.058 10.705 140.567 10.705C143.076 10.705 144.857 12.746 144.857 15.45C144.857 18.154 143.076 20.208 140.567 20.208C138.058 20.208 136.277 18.154 136.277 15.45ZM137.252 15.45C137.252 17.452 138.565 19.285 140.567 19.285C142.569 19.285 143.882 17.452 143.882 15.45C143.882 13.448 142.569 11.641 140.567 11.641C138.565 11.641 137.252 13.448 137.252 15.45ZM147.587 13.539V20H146.612V10.9H147.587L152.345 17.543C152.67 18.011 152.917 18.713 153.086 19.246L153.268 19.194C153.099 18.648 152.891 17.946 152.891 17.374V10.9H153.866V20H152.891L148.133 13.357C147.808 12.902 147.561 12.2 147.392 11.654L147.21 11.719C147.379 12.265 147.587 12.967 147.587 13.539ZM162.424 20H161.449V11.784H158.745V10.9H165.128V11.784H162.424V20ZM166.747 20V10.9H167.722V14.917H173.234V10.9H174.209V20H173.234V15.801H167.722V20H166.747ZM176.548 20V10.9H182.502V11.784H177.523V14.852H182.177V15.736H177.523V19.116H182.567V20H176.548ZM58.744 37.984L62.872 26.768H65.272L69.592 37.984H67.4L65.896 34.08H62.328L60.952 37.984H58.744ZM65.64 32.512L64.328 29.536C64.184 29.2 64.264 28.736 64.264 28.384H63.896C63.896 28.736 63.976 29.2 63.832 29.536L62.52 32.512H65.64ZM74.5698 33.328C74.1538 33.328 73.4658 33.328 72.6498 33.312V38H70.5538V26.8H74.7458C77.1298 26.8 79.0978 27.312 79.0978 30C79.0978 32.688 77.1458 33.328 74.5698 33.328ZM72.6498 31.568H74.4098C75.7858 31.568 77.0498 31.456 77.0498 30C77.0498 28.592 75.8818 28.576 74.4098 28.576H72.6498V31.568ZM84.226 33.328C83.81 33.328 83.122 33.328 82.306 33.312V38H80.21V26.8H84.402C86.786 26.8 88.754 27.312 88.754 30C88.754 32.688 86.802 33.328 84.226 33.328ZM82.306 31.568H84.066C85.442 31.568 86.706 31.456 86.706 30C86.706 28.592 85.538 28.576 84.066 28.576H82.306V31.568ZM103.034 28.56L101.45 29.616C100.714 28.8 99.5943 28.304 98.0423 28.304C96.9703 28.304 95.9783 28.736 95.9783 29.488C95.9783 31.104 103.354 30.896 103.354 34.864C103.354 36.976 101.146 38.24 98.1223 38.24C95.9943 38.24 94.6343 37.44 93.4503 35.824L95.0343 34.8C95.7703 35.792 96.7463 36.288 98.3943 36.288C99.8983 36.288 100.794 35.728 100.794 34.944C100.794 32.8 93.7063 33.072 93.7063 29.6C93.7063 27.728 95.8663 26.56 98.5063 26.56C100.41 26.56 101.898 27.344 103.034 28.56ZM109.634 38H107.538V28.752H104.546V26.8H112.626V28.752H109.634V38ZM113.341 32.4C113.341 29.088 115.773 26.56 118.861 26.56C121.949 26.56 124.381 29.248 124.381 32.4C124.381 35.552 121.949 38.256 118.861 38.256C115.773 38.256 113.341 35.712 113.341 32.4ZM115.453 32.4C115.453 34.256 116.573 36.224 118.861 36.224C121.149 36.224 122.285 34.256 122.285 32.4C122.285 30.544 121.149 28.592 118.861 28.592C116.573 28.592 115.453 30.544 115.453 32.4ZM132.654 33.12C133.294 33.504 133.582 34.192 133.838 35.2C133.982 35.84 134.686 38 134.686 38H132.526C132.174 36.592 131.902 35.552 131.854 35.328C131.342 33.52 130.222 33.712 129.63 33.68C129.518 33.68 129.39 33.68 129.246 33.68C128.862 33.68 128.046 33.68 127.854 33.68V38H125.822V26.8H129.822C132.334 26.8 134.414 27.312 134.414 29.936C134.414 31.376 133.662 32.016 132.654 32.448C132.126 32.688 131.358 32.592 130.782 32.592V32.96C131.358 32.96 132.174 32.8 132.654 33.12ZM127.854 28.192V31.952H129.662C131.054 31.952 132.318 31.392 132.318 29.968C132.318 28.56 131.15 28.192 129.662 28.192H127.854ZM136.447 38V26.8H144.255V28.752H138.479V31.312H143.855V33.264H138.479V36.048H144.335V38H136.447Z" fill="white"/>
</svg>
