<svg width="191" height="49" viewBox="0 0 191 49" fill="none" xmlns="http://www.w3.org/2000/svg">
<rect x="0.5" y="0.5" width="190" height="48" rx="24" fill="black"/>
<rect x="0.5" y="0.5" width="190" height="48" rx="24" stroke="url(#paint0_linear_66_203)"/>
<circle cx="24.5" cy="24.5" r="19.5" fill="white"/>
<path d="M16.4018 14.2318C16.1499 14.4984 16.001 14.9123 16.001 15.4486V34.6036C16.001 35.1404 16.15 35.5538 16.4018 35.8204L16.4659 35.8829L27.1961 25.1527V25.0262V24.8995L16.4659 14.1689L16.4018 14.2318Z" fill="url(#paint1_linear_66_203)"/>
<path d="M30.7728 28.7306L27.1963 25.1523V25.0258V24.8991L30.7736 21.3218L30.8543 21.3678L35.092 23.7757C36.3025 24.4633 36.3025 25.5886 35.092 26.2767L30.8543 28.6846L30.7728 28.7306Z" fill="url(#paint2_linear_66_203)"/>
<path d="M30.8537 28.6843L27.1957 25.0259L16.4014 35.8201C16.8005 36.2425 17.4591 36.2948 18.2013 35.8733L30.8537 28.6843Z" fill="url(#paint3_linear_66_203)"/>
<path d="M30.8537 21.3674L18.2013 14.1783C17.4591 13.7568 16.8005 13.8091 16.4014 14.2315L27.1957 25.0258L30.8537 21.3674Z" fill="url(#paint4_linear_66_203)"/>
<path d="M66.93 20V18.973C66.93 18.635 67.073 18.193 67.138 17.855L66.956 17.816C66.878 18.154 66.891 18.648 66.696 18.934C66.332 19.48 65.5 20.208 64.044 20.208C61.535 20.208 59.585 18.154 59.585 15.45C59.585 12.746 61.431 10.705 63.94 10.705C65.76 10.705 67.229 11.641 67.801 13.279C67.801 13.279 66.878 13.669 66.891 13.656C66.462 12.408 65.357 11.641 63.94 11.641C61.938 11.641 60.56 13.448 60.56 15.45C60.56 17.452 62.042 19.285 64.044 19.285C66.202 19.285 66.735 17.504 66.735 16.542H64.291V15.658H67.788V20H66.93ZM69.6153 20V10.9H75.5693V11.784H70.5903V14.852H75.2443V15.736H70.5903V19.116H75.6343V20H69.6153ZM79.7141 20H78.7391V11.784H76.0351V10.9H82.4181V11.784H79.7141V20ZM87.2872 20V10.9H88.2622V20H87.2872ZM92.9299 20H91.9549V11.784H89.2509V10.9H95.6339V11.784H92.9299V20ZM99.918 15.45C99.918 12.746 101.699 10.705 104.208 10.705C106.717 10.705 108.498 12.746 108.498 15.45C108.498 18.154 106.717 20.208 104.208 20.208C101.699 20.208 99.918 18.154 99.918 15.45ZM100.893 15.45C100.893 17.452 102.206 19.285 104.208 19.285C106.21 19.285 107.523 17.452 107.523 15.45C107.523 13.448 106.21 11.641 104.208 11.641C102.206 11.641 100.893 13.448 100.893 15.45ZM111.228 13.539V20H110.253V10.9H111.228L115.986 17.543C116.311 18.011 116.558 18.713 116.727 19.246L116.909 19.194C116.74 18.648 116.532 17.946 116.532 17.374V10.9H117.507V20H116.532L111.774 13.357C111.449 12.902 111.202 12.2 111.033 11.654L110.851 11.719C111.02 12.265 111.228 12.967 111.228 13.539ZM69.176 38V37.104C69.176 36.464 69.464 35.664 69.624 35.04L69.288 34.96C69.112 35.568 69.08 36.48 68.648 36.96C68.088 37.568 67.048 38.256 65.4 38.256C62.104 38.256 59.544 35.728 59.544 32.4C59.544 29.072 62.056 26.56 65.496 26.56C67.976 26.56 69.976 27.712 70.728 29.728C70.728 29.728 68.632 30.208 68.648 30.192C68.152 29.168 66.936 28.544 65.368 28.544C63.16 28.544 61.64 30.144 61.64 32.4C61.64 34.656 63.272 36.272 65.64 36.272C68.184 36.272 68.936 34.624 68.936 33.744H65.928V31.936H71.192V38H69.176ZM72.419 32.4C72.419 29.088 74.851 26.56 77.939 26.56C81.027 26.56 83.459 29.248 83.459 32.4C83.459 35.552 81.027 38.256 77.939 38.256C74.851 38.256 72.419 35.712 72.419 32.4ZM74.531 32.4C74.531 34.256 75.651 36.224 77.939 36.224C80.227 36.224 81.363 34.256 81.363 32.4C81.363 30.544 80.227 28.592 77.939 28.592C75.651 28.592 74.531 30.544 74.531 32.4ZM84.0909 32.4C84.0909 29.088 86.5229 26.56 89.6109 26.56C92.6989 26.56 95.1309 29.248 95.1309 32.4C95.1309 35.552 92.6989 38.256 89.6109 38.256C86.5229 38.256 84.0909 35.712 84.0909 32.4ZM86.2029 32.4C86.2029 34.256 87.3229 36.224 89.6109 36.224C91.8989 36.224 93.0349 34.256 93.0349 32.4C93.0349 30.544 91.8989 28.592 89.6109 28.592C87.3229 28.592 86.2029 30.544 86.2029 32.4ZM105.848 38V37.104C105.848 36.464 106.136 35.664 106.296 35.04L105.96 34.96C105.784 35.568 105.752 36.48 105.32 36.96C104.76 37.568 103.72 38.256 102.072 38.256C98.7759 38.256 96.2159 35.728 96.2159 32.4C96.2159 29.072 98.7279 26.56 102.168 26.56C104.648 26.56 106.648 27.712 107.4 29.728C107.4 29.728 105.304 30.208 105.32 30.192C104.824 29.168 103.608 28.544 102.04 28.544C99.8319 28.544 98.3119 30.144 98.3119 32.4C98.3119 34.656 99.9439 36.272 102.312 36.272C104.856 36.272 105.608 34.624 105.608 33.744H102.6V31.936H107.864V38H105.848ZM111.667 36.048H117.091V38H109.635V26.8H111.667V36.048ZM118.604 38V26.8H126.412V28.752H120.636V31.312H126.012V33.264H120.636V36.048H126.492V38H118.604ZM135.757 33.328C135.341 33.328 134.653 33.328 133.837 33.312V38H131.741V26.8H135.933C138.317 26.8 140.285 27.312 140.285 30C140.285 32.688 138.333 33.328 135.757 33.328ZM133.837 31.568H135.597C136.973 31.568 138.237 31.456 138.237 30C138.237 28.592 137.069 28.576 135.597 28.576H133.837V31.568ZM143.558 36.048H148.982V38H141.526V26.8H143.558V36.048ZM149.15 37.984L153.278 26.768H155.678L159.998 37.984H157.806L156.302 34.08H152.734L151.358 37.984H149.15ZM156.046 32.512L154.734 29.536C154.59 29.2 154.67 28.736 154.67 28.384H154.302C154.302 28.736 154.382 29.2 154.238 29.536L152.926 32.512H156.046ZM162.341 26.8L164.661 30.304C164.965 30.784 164.997 31.456 164.997 32.016H165.365C165.365 31.456 165.381 30.768 165.669 30.304L167.909 26.8H170.149L166.245 32.704V37.888H164.149V32.704L160.101 26.8H162.341Z" fill="white"/>
<defs>
<linearGradient id="paint0_linear_66_203" x1="0" y1="24.5" x2="191" y2="24.5" gradientUnits="userSpaceOnUse">
<stop stop-color="#0093FE"/>
<stop offset="1" stop-color="#50FFD5"/>
</linearGradient>
<linearGradient id="paint1_linear_66_203" x1="26.2446" y1="15.2467" x2="11.7092" y2="29.7821" gradientUnits="userSpaceOnUse">
<stop stop-color="#00A0FF"/>
<stop offset="0.0066" stop-color="#00A2FF"/>
<stop offset="0.2601" stop-color="#00BEFF"/>
<stop offset="0.5122" stop-color="#00D2FF"/>
<stop offset="0.7604" stop-color="#00DFFF"/>
<stop offset="1" stop-color="#00E3FF"/>
</linearGradient>
<linearGradient id="paint2_linear_66_203" x1="36.6681" y1="25.0261" x2="15.7109" y2="25.0261" gradientUnits="userSpaceOnUse">
<stop stop-color="#FFE000"/>
<stop offset="0.4087" stop-color="#FFBD00"/>
<stop offset="0.7754" stop-color="#FFA600"/>
<stop offset="1" stop-color="#FF9C00"/>
</linearGradient>
<linearGradient id="paint3_linear_66_203" x1="28.8661" y1="27.0137" x2="9.15486" y2="46.7249" gradientUnits="userSpaceOnUse">
<stop stop-color="#FF3743"/>
<stop offset="1" stop-color="#E30864"/>
</linearGradient>
<linearGradient id="paint4_linear_66_203" x1="13.6835" y1="7.85535" x2="22.4853" y2="16.6572" gradientUnits="userSpaceOnUse">
<stop stop-color="#00A06F"/>
<stop offset="0.0685" stop-color="#00A86E"/>
<stop offset="0.4762" stop-color="#00CF6E"/>
<stop offset="0.8009" stop-color="#00E76D"/>
<stop offset="1" stop-color="#00EF6D"/>
</linearGradient>
</defs>
</svg>
