<svg width="31" height="31" viewBox="0 0 31 31" fill="none" xmlns="http://www.w3.org/2000/svg">
<path d="M8.49024 6.69914C10.1476 5.37925 12.144 4.55416 14.2497 4.31885V16.7501H26.6809C26.4456 18.8557 25.6205 20.8521 24.3006 22.5095C22.9808 24.167 21.2197 25.418 19.2202 26.1187C17.2206 26.8194 15.0639 26.9412 12.9981 26.4702C10.9324 25.9992 9.04165 24.9545 7.54346 23.4563C6.04528 21.9581 5.00057 20.0674 4.52957 18.0016C4.05858 15.9359 4.18043 13.7792 4.88112 11.7796C5.5818 9.78009 6.83284 8.01904 8.49024 6.69914Z" stroke="#23E2DD" stroke-width="2" stroke-linecap="round" stroke-linejoin="round"/>
<path d="M19.25 11.7501H26.11C25.5488 10.1684 24.6418 8.73181 23.4551 7.54506C22.2683 6.35831 20.8317 5.4513 19.25 4.89014V11.7501Z" stroke="#23E2DD" stroke-width="2" stroke-linecap="round" stroke-linejoin="round"/>
</svg>
