<svg width="31" height="30" viewBox="0 0 31 30" fill="none" xmlns="http://www.w3.org/2000/svg">
<path d="M5.8325 20.0745C6.89006 22.2127 8.60524 23.9555 10.7262 25.047C12.8321 26.1282 15.233 26.4934 17.565 26.087C19.9043 25.6758 22.0474 24.518 23.6737 22.787C25.3152 21.0397 26.3602 18.8169 26.6588 16.4383C26.962 14.0542 26.5053 11.6352 25.3537 9.52576C24.2129 7.43242 22.4299 5.76076 20.2675 4.75701C18.1196 3.76222 15.7058 3.49538 13.3925 3.99701C11.08 4.49826 9.185 5.63826 7.6175 7.44076C7.42875 7.64076 6.69875 8.44826 6.0925 9.66701M9.875 9.99951L5.36375 10.8995L4.25 6.24951M15.5 11.2495V16.2495L19.25 18.7495" stroke="#23E2DD" stroke-width="2" stroke-linecap="round" stroke-linejoin="round"/>
</svg>
