<svg width="31" height="30" viewBox="0 0 31 30" fill="none" xmlns="http://www.w3.org/2000/svg">
<path d="M19.0355 12.2855C19.9732 11.3479 20.5 10.0761 20.5 8.75C20.5 7.42392 19.9732 6.15215 19.0355 5.21447C18.0979 4.27678 16.8261 3.75 15.5 3.75C14.1739 3.75 12.9021 4.27678 11.9645 5.21447C11.0268 6.15215 10.5 7.42392 10.5 8.75C10.5 10.0761 11.0268 11.3479 11.9645 12.2855C12.9021 13.2232 14.1739 13.75 15.5 13.75C16.8261 13.75 18.0979 13.2232 19.0355 12.2855Z" stroke="#23E2DD" stroke-width="2" stroke-linecap="round" stroke-linejoin="round"/>
<path d="M9.31282 20.0628C10.9538 18.4219 13.1794 17.5 15.5 17.5C17.8206 17.5 20.0462 18.4219 21.6872 20.0628C23.3281 21.7038 24.25 23.9294 24.25 26.25H6.75C6.75 23.9294 7.67187 21.7038 9.31282 20.0628Z" stroke="#23E2DD" stroke-width="2" stroke-linecap="round" stroke-linejoin="round"/>
</svg>
