<svg width="31" height="30" viewBox="0 0 31 30" fill="none" xmlns="http://www.w3.org/2000/svg">
<path d="M24.6475 16.875H19.8037C19.1619 16.875 18.5461 17.1292 18.0912 17.582C17.6363 18.0348 17.3792 18.6494 17.3763 19.2912V24.135C17.3763 24.7788 17.632 25.3963 18.0872 25.8515C18.5425 26.3067 19.1599 26.5625 19.8037 26.5625H24.6475C25.2891 26.5592 25.9034 26.302 26.3559 25.8471C26.8085 25.3922 27.0625 24.7767 27.0625 24.135V19.2912C27.0625 18.6508 26.8081 18.0365 26.3552 17.5836C25.9023 17.1307 25.288 16.8763 24.6475 16.8763M11.1963 16.875H6.3525C5.71074 16.8786 5.09651 17.1361 4.644 17.5912C4.19149 18.0463 3.93749 18.662 3.9375 19.3037V24.1475C3.9375 24.788 4.19194 25.4023 4.64484 25.8552C5.09774 26.3081 5.712 26.5625 6.3525 26.5625H11.1963C11.8379 26.5625 12.4535 26.3085 12.9083 25.8559C13.3632 25.4034 13.6204 24.7891 13.6237 24.1475V19.3037C13.6237 18.6599 13.368 18.0425 12.9128 17.5872C12.4575 17.132 11.8401 16.8763 11.1963 16.8763M11.1963 3.4375H6.3525C6.03536 3.4375 5.72132 3.49997 5.42832 3.62133C5.13532 3.7427 4.86909 3.92058 4.64484 4.14484C4.42058 4.36909 4.2427 4.63532 4.12133 4.92832C3.99997 5.22132 3.9375 5.53536 3.9375 5.8525V10.6963C3.93749 11.3379 4.19153 11.9535 4.64407 12.4083C5.09662 12.8632 5.71086 13.1204 6.3525 13.1237H11.1963C11.8401 13.1237 12.4575 12.868 12.9128 12.4128C13.368 11.9575 13.6237 11.3401 13.6237 10.6963V5.8525C13.6204 5.21086 13.3632 4.59662 12.9083 4.14407C12.4535 3.69153 11.8379 3.43749 11.1963 3.4375ZM24.6475 3.4375H19.8037C19.1621 3.43749 18.5465 3.69153 18.0917 4.14407C17.6368 4.59662 17.3796 5.21086 17.3763 5.8525V10.6963C17.3766 11.34 17.6324 11.9572 18.0876 12.4124C18.5428 12.8676 19.16 13.1234 19.8037 13.1237H24.6475C25.2891 13.1204 25.9034 12.8632 26.3559 12.4083C26.8085 11.9535 27.0625 11.3379 27.0625 10.6963V5.8525C27.0625 5.212 26.8081 4.59774 26.3552 4.14484C25.9023 3.69194 25.288 3.4375 24.6475 3.4375Z" stroke="#7A7A7A" stroke-width="2" stroke-linecap="round" stroke-linejoin="round"/>
</svg>
