<svg width="31" height="30" viewBox="0 0 31 30" fill="none" xmlns="http://www.w3.org/2000/svg">
<path d="M5.8325 20.075C6.89006 22.2132 8.60524 23.9559 10.7262 25.0475C12.8321 26.1287 15.233 26.4938 17.565 26.0875C19.9043 25.6763 22.0474 24.5185 23.6737 22.7875C25.3152 21.0402 26.3602 18.8174 26.6588 16.4388C26.962 14.0547 26.5053 11.6357 25.3537 9.52625C24.2129 7.4329 22.4299 5.76125 20.2675 4.7575C18.1196 3.76271 15.7058 3.49587 13.3925 3.9975C11.08 4.49875 9.185 5.63875 7.6175 7.44125C7.42875 7.64125 6.69875 8.44875 6.0925 9.6675M9.875 10L5.36375 10.9L4.25 6.25M15.5 11.25V16.25L19.25 18.75" stroke="#7A7A7A" stroke-width="2" stroke-linecap="round" stroke-linejoin="round"/>
</svg>
