<svg width="31" height="31" viewBox="0 0 31 31" fill="none" xmlns="http://www.w3.org/2000/svg">
<path d="M8.49024 6.69902C10.1476 5.37913 12.144 4.55404 14.2497 4.31873V16.75H26.6809C26.4456 18.8556 25.6205 20.852 24.3006 22.5094C22.9808 24.1668 21.2197 25.4179 19.2202 26.1185C17.2206 26.8192 15.0639 26.9411 12.9981 26.4701C10.9324 25.9991 9.04165 24.9544 7.54346 23.4562C6.04528 21.958 5.00057 20.0673 4.52957 18.0015C4.05858 15.9358 4.18043 13.779 4.88112 11.7795C5.5818 9.77997 6.83284 8.01891 8.49024 6.69902Z" stroke="#7A7A7A" stroke-width="2" stroke-linecap="round" stroke-linejoin="round"/>
<path d="M19.25 11.75H26.11C25.5488 10.1683 24.6418 8.73169 23.4551 7.54494C22.2683 6.35818 20.8317 5.45117 19.25 4.89001V11.75Z" stroke="#7A7A7A" stroke-width="2" stroke-linecap="round" stroke-linejoin="round"/>
</svg>
