<svg width="31" height="30" viewBox="0 0 31 30" fill="none" xmlns="http://www.w3.org/2000/svg">
<path d="M8 10H13" stroke="#7A7A7A" stroke-width="2" stroke-linecap="round" stroke-linejoin="round"/>
<path d="M26.5413 11.25H23.2888C21.0575 11.25 19.25 12.9288 19.25 15C19.25 17.0712 21.0587 18.75 23.2875 18.75H26.5413C26.6463 18.75 26.6975 18.75 26.7413 18.7475C27.4163 18.7063 27.9537 18.2075 27.9975 17.5812C28 17.5412 28 17.4925 28 17.3962V12.6038C28 12.5075 28 12.4588 27.9975 12.4188C27.9525 11.7925 27.4163 11.2937 26.7413 11.2525C26.6988 11.25 26.6463 11.25 26.5413 11.25Z" stroke="#7A7A7A" stroke-width="2"/>
<path d="M26.7063 11.25C26.6088 8.91 26.2962 7.475 25.285 6.465C23.8212 5 21.4637 5 16.75 5H13C8.28625 5 5.92875 5 4.465 6.465C3 7.92875 3 10.2863 3 15C3 19.7137 3 22.0712 4.465 23.535C5.92875 25 8.28625 25 13 25H16.75C21.4637 25 23.8212 25 25.285 23.535C26.2962 22.525 26.61 21.09 26.7063 18.75" stroke="#7A7A7A" stroke-width="2"/>
<path d="M22.9883 15H23.0008" stroke="#7A7A7A" stroke-width="2" stroke-linecap="round" stroke-linejoin="round"/>
</svg>
