<svg width="30" height="31" viewBox="0 0 30 31" fill="none" xmlns="http://www.w3.org/2000/svg">
<rect y="0.5" width="30" height="30" rx="15" fill="white"/>
<path d="M13 14.5V20.5M17 14.5V20.5M7 10.5H23M22 10.5L21.133 22.642C21.0971 23.1466 20.8713 23.6188 20.5011 23.9636C20.1309 24.3083 19.6439 24.5 19.138 24.5H10.862C10.3561 24.5 9.86907 24.3083 9.49889 23.9636C9.1287 23.6188 8.90292 23.1466 8.867 22.642L8 10.5H22ZM18 10.5V7.5C18 7.23478 17.8946 6.98043 17.7071 6.79289C17.5196 6.60536 17.2652 6.5 17 6.5H13C12.7348 6.5 12.4804 6.60536 12.2929 6.79289C12.1054 6.98043 12 7.23478 12 7.5V10.5H18Z" stroke="#E34D4D" stroke-width="2" stroke-linecap="round" stroke-linejoin="round"/>
</svg>
