<svg width="24" height="24" viewBox="0 0 24 24" fill="none" xmlns="http://www.w3.org/2000/svg">
<path d="M13.8283 10.1719C13.0782 9.42204 12.061 9.00077 11.0003 9.00077C9.93967 9.00077 8.92244 9.42204 8.17232 10.1719L4.17232 14.1719C3.79028 14.5409 3.48556 14.9823 3.27592 15.4703C3.06628 15.9583 2.95594 16.4832 2.95132 17.0143C2.94671 17.5454 3.04791 18.0722 3.24904 18.5637C3.45016 19.0553 3.74717 19.5019 4.12274 19.8775C4.49832 20.2531 4.94492 20.5501 5.43651 20.7512C5.92809 20.9523 6.45481 21.0535 6.98593 21.0489C7.51705 21.0443 8.04193 20.934 8.52994 20.7243C9.01796 20.5147 9.45934 20.21 9.82832 19.8279L10.9303 18.7269M10.1723 13.8279C10.9224 14.5778 11.9397 14.9991 13.0003 14.9991C14.061 14.9991 15.0782 14.5778 15.8283 13.8279L19.8283 9.82792C20.557 9.07351 20.9601 8.0631 20.951 7.01431C20.9419 5.96553 20.5212 4.96228 19.7796 4.22065C19.038 3.47901 18.0347 3.05834 16.9859 3.04922C15.9371 3.04011 14.9267 3.44329 14.1723 4.17192L13.0723 5.27192" stroke="white" stroke-width="2" stroke-linecap="round" stroke-linejoin="round"/>
</svg>
