<svg width="11" height="10" viewBox="0 0 11 10" fill="none" xmlns="http://www.w3.org/2000/svg">
<path fill-rule="evenodd" clip-rule="evenodd" d="M-1.88329e-07 5.50395L8.58398 5.50395C8.91861 5.50395 9.18987 5.77522 9.18987 6.10984C9.18987 6.44447 8.91861 6.71573 8.58398 6.71573L8.49367 6.71573L5.70886 9.40857L6.12658 9.8125L11 5.10003L-2.05989e-07 5.10003L-1.88329e-07 5.50395ZM-2.24396e-07 4.67891L8.55827 4.67891C8.90709 4.67891 9.18987 4.39613 9.18987 4.04731C9.18987 3.69848 8.90709 3.4157 8.55827 3.4157L8.49367 3.4157L5.70886 0.608571L6.12658 0.187501L11 5.09998L-2.05987e-07 5.09998L-2.24396e-07 4.67891Z" fill="white"/>
</svg>
