<svg width="104" height="104" viewBox="0 0 104 104" fill="none" xmlns="http://www.w3.org/2000/svg">
<rect x="103.5" y="103.5" width="103" height="103" rx="51.5" transform="rotate(-180 103.5 103.5)" fill="#171423" stroke="url(#paint0_linear_605_8571)"/>
<rect x="-0.609375" y="0.609375" width="95.3527" height="95.3527" rx="47.6763" transform="matrix(-1 -8.74228e-08 -8.74228e-08 1 99.0664 3.71436)" fill="url(#paint1_linear_605_8571)" stroke="#2D2C3B" stroke-width="1.21875"/>
<g opacity="0.16" filter="url(#filter0_f_605_8571)">
<path d="M28.0524 62.1466C31.1854 65.2478 34.8014 67.6691 38.7415 69.2832C42.6816 70.9292 46.9775 71.7998 51.4006 71.7998C60.215 71.7998 68.4828 68.3427 74.7171 62.1402L77.0112 59.8461C77.3036 59.522 77.3036 59.0072 77.0112 58.7149L72.4229 54.1266C72.264 53.9677 72.067 53.8978 71.8446 53.8978C71.654 53.8978 71.457 53.9613 71.2981 54.1266L69.0039 56.4334C64.3203 61.1171 58.0543 63.7353 51.4006 63.7353C44.7152 63.7353 38.4809 61.1171 33.7655 56.4334L31.4714 54.1393C31.179 53.847 30.6643 53.847 30.3402 54.1393L25.7837 58.7276C25.4596 59.0517 25.4596 59.5347 25.7837 59.8588L28.0524 62.1466Z" fill="#1AF7A9"/>
<path d="M37.1903 53.0086C45.0387 60.8253 57.7614 60.8253 65.578 53.0086L67.8722 50.7145C68.1963 50.3904 68.1963 49.9074 67.8722 49.5833L63.2839 44.995C63.125 44.8679 62.928 44.7662 62.7373 44.7662C62.5085 44.7662 62.3179 44.8615 62.159 44.995L59.8649 47.2891C57.6025 49.5515 54.6029 50.8098 51.4064 50.8098C48.178 50.8098 45.1721 49.5515 42.9098 47.2891L40.6156 44.995C40.3233 44.7026 39.7768 44.7026 39.4844 44.995L34.8961 49.5833C34.6038 49.9074 34.6038 50.4221 34.8961 50.7145L37.1903 53.0086Z" fill="#1AF7A9"/>
<path d="M46.3291 43.8696C49.0109 46.5832 53.7581 46.5832 56.4399 43.8696C57.374 42.9354 58.054 41.7407 58.2828 40.5078C58.3464 40.2473 58.2828 39.9613 58.0922 39.7643L51.985 33.6571C51.8261 33.53 51.6291 33.4284 51.4067 33.4284C51.1779 33.4284 50.9873 33.5237 50.8284 33.6571L44.6895 39.7961C44.4988 39.9867 44.4289 40.279 44.4988 40.5714C44.7785 41.7661 45.3949 42.9291 46.3291 43.8696Z" fill="#1AF7A9"/>
</g>
<g clip-path="url(#clip0_605_8571)">
<path d="M81.3224 31.246C81.3214 31.2509 81.3205 31.2554 81.3197 31.2594L67.988 67.2262L67.9846 67.2356C67.7302 67.9663 67.2356 68.5892 66.5814 69.0025C65.9273 69.4157 65.1523 69.595 64.3831 69.5109L64.3561 69.508H64.3288H43.1288H42.7803L42.6597 69.8349L39.0203 79.7H25.6914L30.7387 66.3H39.9928H40.341L40.4618 65.9734L44.117 56.092H58.3288H58.6768L58.7977 55.7656L64.1897 41.2056L64.4392 40.532H63.7208H35.3544L39.7403 28.8414C40.1208 27.8529 40.9925 27.3866 41.8611 27.1712C42.2909 27.0647 42.6982 27.0262 42.9996 27.0148C43.1496 27.0092 43.2713 27.0103 43.354 27.0127C43.3953 27.014 43.4267 27.0155 43.4468 27.0166L43.4684 27.018L43.4719 27.0182L43.4923 27.0199H43.5128H78.4568C79.4822 27.0199 80.126 27.2968 80.5403 27.6589C80.9604 28.0261 81.1985 28.528 81.3211 29.0703C81.4441 29.6139 81.4441 30.1692 81.4099 30.5977C81.393 30.8099 81.3681 30.9861 81.3477 31.1078C81.3376 31.1685 81.3286 31.2154 81.3224 31.246Z" fill="url(#paint2_linear_605_8571)" stroke="url(#paint3_linear_605_8571)"/>
</g>
<defs>
<filter id="filter0_f_605_8571" x="3.2553" y="11.1425" width="96.2609" height="82.943" filterUnits="userSpaceOnUse" color-interpolation-filters="sRGB">
<feFlood flood-opacity="0" result="BackgroundImageFix"/>
<feBlend mode="normal" in="SourceGraphic" in2="BackgroundImageFix" result="shape"/>
<feGaussianBlur stdDeviation="11.1429" result="effect1_foregroundBlur_605_8571"/>
</filter>
<linearGradient id="paint0_linear_605_8571" x1="203.469" y1="95.0965" x2="103.22" y2="202.997" gradientUnits="userSpaceOnUse">
<stop stop-color="#C9A85C"/>
<stop offset="0.234375" stop-color="#CEB264"/>
<stop offset="0.489583" stop-color="#ECE3B6"/>
<stop offset="0.708333" stop-color="#D3BA6A"/>
</linearGradient>
<linearGradient id="paint1_linear_605_8571" x1="71.3312" y1="25.2403" x2="104.253" y2="115.227" gradientUnits="userSpaceOnUse">
<stop stop-color="#1D1C2B"/>
<stop offset="1" stop-color="#2C2B3D"/>
</linearGradient>
<linearGradient id="paint2_linear_605_8571" x1="79.001" y1="22.5" x2="28.501" y2="80" gradientUnits="userSpaceOnUse">
<stop stop-color="#C9A85C"/>
<stop offset="0.234375" stop-color="#CEB264"/>
<stop offset="0.489583" stop-color="#ECE3B6"/>
<stop offset="0.708333" stop-color="#D3BA6A"/>
</linearGradient>
<linearGradient id="paint3_linear_605_8571" x1="53.4491" y1="26.5107" x2="53.4491" y2="80.2" gradientUnits="userSpaceOnUse">
<stop stop-color="#F8EAAE"/>
<stop offset="1" stop-color="#AE8C38"/>
</linearGradient>
<clipPath id="clip0_605_8571">
<rect width="58" height="55" fill="white" transform="translate(24 26)"/>
</clipPath>
</defs>
</svg>
