<svg width="104" height="104" viewBox="0 0 104 104" fill="none" xmlns="http://www.w3.org/2000/svg">
<rect x="103.5" y="103.5" width="103" height="103" rx="51.5" transform="rotate(-180 103.5 103.5)" fill="#171423" stroke="url(#paint0_linear_605_8499)"/>
<rect x="-0.609375" y="0.609375" width="95.3527" height="95.3527" rx="47.6763" transform="matrix(-1 -8.74228e-08 -8.74228e-08 1 99.0664 3.71436)" fill="url(#paint1_linear_605_8499)" stroke="#2D2C3B" stroke-width="1.21875"/>
<g opacity="0.16" filter="url(#filter0_f_605_8499)">
<path d="M28.0524 62.1466C31.1854 65.2478 34.8014 67.6691 38.7415 69.2832C42.6816 70.9292 46.9775 71.7998 51.4006 71.7998C60.215 71.7998 68.4828 68.3427 74.7171 62.1402L77.0112 59.8461C77.3036 59.522 77.3036 59.0072 77.0112 58.7149L72.4229 54.1266C72.264 53.9677 72.067 53.8978 71.8446 53.8978C71.654 53.8978 71.457 53.9613 71.2981 54.1266L69.0039 56.4334C64.3203 61.1171 58.0543 63.7353 51.4006 63.7353C44.7152 63.7353 38.4809 61.1171 33.7655 56.4334L31.4714 54.1393C31.179 53.847 30.6643 53.847 30.3402 54.1393L25.7837 58.7276C25.4596 59.0517 25.4596 59.5347 25.7837 59.8588L28.0524 62.1466Z" fill="#1AF7A9"/>
<path d="M37.1903 53.0086C45.0387 60.8253 57.7614 60.8253 65.578 53.0086L67.8722 50.7145C68.1963 50.3904 68.1963 49.9074 67.8722 49.5833L63.2839 44.995C63.125 44.8679 62.928 44.7662 62.7373 44.7662C62.5085 44.7662 62.3179 44.8615 62.159 44.995L59.8649 47.2891C57.6025 49.5515 54.6029 50.8098 51.4064 50.8098C48.178 50.8098 45.1721 49.5515 42.9098 47.2891L40.6156 44.995C40.3233 44.7026 39.7768 44.7026 39.4844 44.995L34.8961 49.5833C34.6038 49.9074 34.6038 50.4221 34.8961 50.7145L37.1903 53.0086Z" fill="#1AF7A9"/>
<path d="M46.3291 43.8696C49.0109 46.5832 53.7581 46.5832 56.4399 43.8696C57.374 42.9354 58.054 41.7407 58.2828 40.5078C58.3464 40.2473 58.2828 39.9613 58.0922 39.7643L51.985 33.6571C51.8261 33.53 51.6291 33.4284 51.4067 33.4284C51.1779 33.4284 50.9873 33.5237 50.8284 33.6571L44.6895 39.7961C44.4988 39.9867 44.4289 40.279 44.4988 40.5714C44.7785 41.7661 45.3949 42.9291 46.3291 43.8696Z" fill="#1AF7A9"/>
</g>
<g clip-path="url(#clip0_605_8499)">
<path d="M80.8224 31.246C80.8214 31.2509 80.8205 31.2554 80.8197 31.2594L67.488 67.2262L67.4846 67.2356C67.2302 67.9663 66.7356 68.5892 66.0814 69.0025C65.4273 69.4157 64.6523 69.595 63.8831 69.5109L63.8561 69.508H63.8288H42.6288H42.2803L42.1597 69.8349L38.5203 79.7H25.1914L30.2387 66.3H39.4928H39.841L39.9618 65.9734L43.617 56.092H57.8288H58.1768L58.2977 55.7656L63.6897 41.2056L63.9392 40.532H63.2208H34.8544L39.2403 28.8414C39.6208 27.8529 40.4925 27.3866 41.3611 27.1712C41.7909 27.0647 42.1982 27.0262 42.4996 27.0148C42.6496 27.0092 42.7713 27.0103 42.854 27.0127C42.8953 27.014 42.9267 27.0155 42.9468 27.0166L42.9684 27.018L42.9719 27.0182L42.9923 27.0199H43.0128H77.9568C78.9822 27.0199 79.626 27.2968 80.0403 27.6589C80.4604 28.0261 80.6985 28.528 80.8211 29.0703C80.9441 29.6139 80.9441 30.1692 80.9099 30.5977C80.893 30.8099 80.8681 30.9861 80.8477 31.1078C80.8376 31.1685 80.8286 31.2154 80.8224 31.246Z" fill="url(#paint2_linear_605_8499)" stroke="url(#paint3_linear_605_8499)"/>
</g>
<defs>
<filter id="filter0_f_605_8499" x="3.2553" y="11.1425" width="96.2609" height="82.943" filterUnits="userSpaceOnUse" color-interpolation-filters="sRGB">
<feFlood flood-opacity="0" result="BackgroundImageFix"/>
<feBlend mode="normal" in="SourceGraphic" in2="BackgroundImageFix" result="shape"/>
<feGaussianBlur stdDeviation="11.1429" result="effect1_foregroundBlur_605_8499"/>
</filter>
<linearGradient id="paint0_linear_605_8499" x1="203.469" y1="95.0965" x2="103.22" y2="202.997" gradientUnits="userSpaceOnUse">
<stop stop-color="#925217"/>
<stop offset="0.234375" stop-color="#A66C30"/>
<stop offset="0.489583" stop-color="#F9CA9A"/>
<stop offset="0.708333" stop-color="#D6A369"/>
</linearGradient>
<linearGradient id="paint1_linear_605_8499" x1="71.3312" y1="25.2403" x2="104.253" y2="115.227" gradientUnits="userSpaceOnUse">
<stop stop-color="#1D1C2B"/>
<stop offset="1" stop-color="#2C2B3D"/>
</linearGradient>
<linearGradient id="paint2_linear_605_8499" x1="78.501" y1="22.5" x2="28.001" y2="80" gradientUnits="userSpaceOnUse">
<stop stop-color="#925217"/>
<stop offset="0.234375" stop-color="#A66C30"/>
<stop offset="0.489583" stop-color="#F9CA9A"/>
<stop offset="0.708333" stop-color="#D6A369"/>
</linearGradient>
<linearGradient id="paint3_linear_605_8499" x1="52.9491" y1="26.5107" x2="52.9491" y2="80.2" gradientUnits="userSpaceOnUse">
<stop stop-color="#D6A365"/>
<stop offset="1" stop-color="#A26A34"/>
</linearGradient>
<clipPath id="clip0_605_8499">
<rect width="58" height="55" fill="white" transform="translate(23.5 26)"/>
</clipPath>
</defs>
</svg>
