<svg width="21" height="20" viewBox="0 0 21 20" fill="none" xmlns="http://www.w3.org/2000/svg">
<path fill-rule="evenodd" clip-rule="evenodd" d="M10.5 0C16.0232 0 20.5 4.47676 20.5 10C20.5 15.5232 16.0232 20 10.5 20C4.97676 20 0.5 15.5232 0.5 10C0.5 4.47676 4.97676 0 10.5 0Z" fill="#F0B90B"/>
<path d="M5.99599 9.99992L6.00321 12.6442L8.25 13.9663V15.5143L4.6883 13.4254V9.22669L5.99599 9.99992ZM5.99599 7.35569V8.89656L4.6875 8.12252V6.58166L5.99599 5.80762L7.3109 6.58166L5.99599 7.35569ZM9.1883 6.58166L10.4968 5.80762L11.8117 6.58166L10.4968 7.35569L9.1883 6.58166Z" fill="white"/>
<path d="M6.94141 12.0961V10.548L8.2499 11.322V12.8629L6.94141 12.0961ZM9.1882 14.5208L10.4967 15.2948L11.8116 14.5208V16.0616L10.4967 16.8357L9.1882 16.0616V14.5208ZM13.6882 6.58166L14.9967 5.80762L16.3116 6.58166V8.12252L14.9967 8.89656V7.35569L13.6882 6.58166ZM14.9967 12.6442L15.0039 9.99993L16.3124 9.22589V13.4246L12.7507 15.5135V13.9655L14.9967 12.6442Z" fill="white"/>
<path d="M14.0585 12.0962L12.75 12.863V11.3221L14.0585 10.5481V12.0962Z" fill="white"/>
<path d="M14.0584 7.90389L14.0656 9.45197L11.8124 10.7741V13.4247L10.5039 14.1915L9.19541 13.4247V10.7741L6.94221 9.45197V7.90389L8.25631 7.12985L10.4959 8.45838L12.7491 7.12985L14.064 7.90389H14.0584ZM6.94141 5.26046L10.4967 3.16431L14.0584 5.26046L12.7499 6.0345L10.4967 4.70597L8.2499 6.0345L6.94141 5.26046Z" fill="white"/>
</svg>
