<svg width="48" height="48" viewBox="0 0 48 48" fill="none" xmlns="http://www.w3.org/2000/svg">
<circle cx="24.0598" cy="23.9729" r="23.6467" fill="url(#paint0_linear_136_1517)"/>
<path d="M35.441 12.4623L31.8623 35.3174C31.7912 35.5376 31.6838 35.7361 31.5475 35.8998C31.4111 36.0635 31.2489 36.1885 31.0714 36.2666C30.8939 36.3448 30.7053 36.3742 30.5181 36.353C30.331 36.3318 30.1495 36.2603 29.9858 36.1435L24.8922 31.2004L24.8338 31.1454L21.7323 28.1281L21.7173 28.1195L21.7024 28.1109L21.7091 28.0558L21.7309 28.0747L21.7459 27.9371C21.7459 27.9371 30.9118 17.5087 31.2885 17.0595C31.6651 16.6103 31.5345 16.5275 31.5345 16.5275C31.5631 15.9871 30.8547 16.5275 30.8547 16.5275L18.711 26.2866L13.6541 24.1316C13.6541 24.1316 12.8709 23.7875 12.7988 23.0216C12.7268 22.2557 13.6759 21.8477 13.6759 21.8477L33.7822 11.865C33.7822 11.865 35.441 10.9408 35.441 12.4623Z" fill="white"/>
<defs>
<linearGradient id="paint0_linear_136_1517" x1="0.413086" y1="23.9729" x2="47.7065" y2="23.9729" gradientUnits="userSpaceOnUse">
<stop stop-color="#0093FE"/>
<stop offset="1" stop-color="#50FFD5"/>
</linearGradient>
</defs>
</svg>
